<svg version="1.0" xmlns="http://www.w3.org/2000/svg"
 width="100%" height="1203.000000pt" viewBox="0 1203 3024.000000 1203.000000"
 preserveAspectRatio="xMidYMid meet">
<g transform="translate(0.000000,1203.000000) scale(0.100000,-0.100000)"
fill="#FF0407" stroke="none">
<path d="M0 6843 l1 -5188 88 -95 89 -95 83 80 c382 366 923 736 1437 982 545
261 1095 430 1677 516 301 45 416 52 850 52 428 0 535 -7 875 -56 352 -51 747
-146 1140 -274 551 -179 803 -243 1212 -304 1098 -166 2362 -29 3653 397 204
68 592 210 752 276 533 220 1192 545 1664 822 119 70 127 73 160 63 19 -6 50
-15 69 -19 19 -4 69 -18 110 -29 41 -12 91 -25 110 -31 34 -9 186 -44 265 -61
112 -24 283 -54 395 -69 36 -4 117 -15 180 -24 251 -34 743 -59 1020 -51 345
10 708 36 915 65 232 33 288 42 365 56 47 8 108 19 135 23 89 15 277 52 415
83 74 17 151 34 170 38 59 12 391 100 460 121 36 11 137 43 225 71 88 27 174
54 190 59 73 22 122 38 150 49 57 24 70 29 145 55 165 59 266 97 282 106 10 5
22 9 28 9 5 0 33 11 62 24 29 13 111 48 182 76 71 28 136 55 145 60 24 13 108
49 160 70 55 21 136 58 251 112 47 22 132 63 190 90 140 66 302 148 370 185
51 28 171 93 280 150 25 14 61 34 80 45 19 11 73 42 120 68 47 26 102 57 124
69 76 43 263 156 343 208 46 29 85 53 87 53 3 0 49 28 103 62 184 115 456 311
567 408 123 107 218 180 232 180 20 0 356 -93 524 -144 239 -74 575 -192 817
-287 750 -293 1333 -419 1948 -419 248 0 412 11 595 40 1075 174 1984 777
2771 1836 166 224 381 555 513 792 65 116 50 110 201 86 55 -8 125 -19 155
-24 30 -4 67 -11 83 -15 l27 -7 0 1921 0 1921 -15120 0 -15120 0 0 -5187z"/>
</g>
</svg>
